<?xml version="1.0" encoding="UTF-8" standalone="no"?>
<svg width="100px" height="99px" viewBox="0 0 100 99" version="1.1" xmlns="http://www.w3.org/2000/svg" xmlns:xlink="http://www.w3.org/1999/xlink">
    <!-- Generator: Sketch 3.7.2 (28276) - http://www.bohemiancoding.com/sketch -->
    <title>Logo</title>
    <desc>Created with Sketch.</desc>
    <defs></defs>
    <g id="abizmo" stroke="none" stroke-width="1" fill="none" fill-rule="evenodd">
        <g id="Logo" fill="#37474F">
            <polygon id="Triangle-3" points="25 49 24.9804655 99 0 99"></polygon>
            <polygon id="Triangle-3-Copy-2" points="49 0 48.9812469 49 25 49"></polygon>
            <polygon id="Triangle-3-Copy-4" transform="translate(37.000000, 61.500000) scale(1, -1) translate(-37.000000, -61.500000) " points="49 49 48.9812469 74 25 74"></polygon>
            <polygon id="Triangle-3-Copy-5" transform="translate(63.000000, 61.500000) scale(-1, -1) translate(-63.000000, -61.500000) " points="75 49 74.9812469 74 51 74"></polygon>
            <polygon id="Triangle-3-Copy-3" transform="translate(63.000000, 24.500000) scale(-1, 1) translate(-63.000000, -24.500000) " points="75 0 74.9812469 49 51 49"></polygon>
            <polygon id="Triangle-3-Copy" transform="translate(87.500000, 74.000000) scale(-1, 1) translate(-87.500000, -74.000000) " points="100 49 99.9804655 99 75 99"></polygon>
        </g>
    </g>
</svg>